%TF.GenerationSoftware,KiCad,Pcbnew,10.0.3*%
%TF.CreationDate,2026-05-29T00:48:48+02:00*%
%TF.ProjectId,brewingstation3,62726577-696e-4677-9374-6174696f6e33,rev?*%
%TF.SameCoordinates,Original*%
%TF.FileFunction,Soldermask,Bot*%
%TF.FilePolarity,Negative*%
%FSLAX46Y46*%
G04 Gerber Fmt 4.6, Leading zero omitted, Abs format (unit mm)*
G04 Created by KiCad (PCBNEW 10.0.3) date 2026-05-29 00:48:48*
%MOMM*%
%LPD*%
G01*
G04 APERTURE LIST*
G04 Aperture macros list*
%AMRoundRect*
0 Rectangle with rounded corners*
0 $1 Rounding radius*
0 $2 $3 $4 $5 $6 $7 $8 $9 X,Y pos of 4 corners*
0 Add a 4 corners polygon primitive as box body*
4,1,4,$2,$3,$4,$5,$6,$7,$8,$9,$2,$3,0*
0 Add four circle primitives for the rounded corners*
1,1,$1+$1,$2,$3*
1,1,$1+$1,$4,$5*
1,1,$1+$1,$6,$7*
1,1,$1+$1,$8,$9*
0 Add four rect primitives between the rounded corners*
20,1,$1+$1,$2,$3,$4,$5,0*
20,1,$1+$1,$4,$5,$6,$7,0*
20,1,$1+$1,$6,$7,$8,$9,0*
20,1,$1+$1,$8,$9,$2,$3,0*%
G04 Aperture macros list end*
%ADD10C,1.700000*%
%ADD11R,1.700000X1.700000*%
%ADD12C,1.100000*%
%ADD13RoundRect,0.249999X0.850001X0.850001X-0.850001X0.850001X-0.850001X-0.850001X0.850001X-0.850001X0*%
%ADD14C,2.200000*%
%ADD15RoundRect,0.249999X-0.850001X-0.850001X0.850001X-0.850001X0.850001X0.850001X-0.850001X0.850001X0*%
%ADD16R,2.000000X2.000000*%
%ADD17C,2.000000*%
%ADD18RoundRect,0.250000X-0.550000X-0.550000X0.550000X-0.550000X0.550000X0.550000X-0.550000X0.550000X0*%
%ADD19C,1.600000*%
%ADD20R,1.050000X1.500000*%
%ADD21O,1.050000X1.500000*%
%ADD22RoundRect,0.249999X0.850001X-0.850001X0.850001X0.850001X-0.850001X0.850001X-0.850001X-0.850001X0*%
%ADD23RoundRect,0.249999X-0.850001X0.850001X-0.850001X-0.850001X0.850001X-0.850001X0.850001X0.850001X0*%
%ADD24C,3.200000*%
%ADD25R,1.200000X2.000000*%
%ADD26O,1.200000X2.000000*%
G04 APERTURE END LIST*
D10*
%TO.C,J4*%
X40640000Y-83312000D03*
X40640000Y-85852000D03*
D11*
X40640000Y-88392000D03*
%TD*%
D12*
%TO.C,J13*%
X36830000Y-15240000D03*
X34290000Y-15240000D03*
D13*
X36830000Y-17780000D03*
D14*
X34290000Y-17780000D03*
%TD*%
D12*
%TO.C,J9*%
X29210000Y-15240000D03*
X26670000Y-15240000D03*
X24130000Y-15240000D03*
D13*
X29210000Y-17780000D03*
D14*
X26670000Y-17780000D03*
X24130000Y-17780000D03*
%TD*%
%TO.C,DS1*%
X93980000Y-86360000D03*
X91440000Y-86360000D03*
X88900000Y-86360000D03*
D15*
X86360000Y-86360000D03*
%TD*%
D14*
%TO.C,J12*%
X101600000Y-86360000D03*
D15*
X99060000Y-86360000D03*
D12*
X101600000Y-88900000D03*
X99060000Y-88900000D03*
%TD*%
D14*
%TO.C,DS2*%
X81280000Y-86360000D03*
X78740000Y-86360000D03*
X76200000Y-86360000D03*
D15*
X73660000Y-86360000D03*
%TD*%
D13*
%TO.C,U6*%
X82550000Y-17780000D03*
D14*
X80010000Y-17780000D03*
X77470000Y-17780000D03*
X74930000Y-17780000D03*
X72390000Y-17780000D03*
X69850000Y-17780000D03*
%TD*%
D11*
%TO.C,U5*%
X45720000Y-37970000D03*
D10*
X48260000Y-37970000D03*
X50800000Y-37970000D03*
X53340000Y-37970000D03*
X55880000Y-37970000D03*
X58420000Y-37970000D03*
X60960000Y-37970000D03*
%TD*%
D16*
%TO.C,U3*%
X34290000Y-85090000D03*
D17*
X34290000Y-82550000D03*
X34290000Y-80010000D03*
X34290000Y-77470000D03*
X34290000Y-74930000D03*
X34290000Y-72390000D03*
D16*
X24130000Y-85090000D03*
D17*
X24130000Y-82550000D03*
X24130000Y-80010000D03*
X24130000Y-77470000D03*
X24130000Y-74930000D03*
X24130000Y-72390000D03*
%TD*%
D18*
%TO.C,U2*%
X73660000Y-46990000D03*
D19*
X73660000Y-49530000D03*
X73660000Y-52070000D03*
X73660000Y-54610000D03*
X73660000Y-57150000D03*
X73660000Y-59690000D03*
X73660000Y-62230000D03*
X73660000Y-64770000D03*
X81280000Y-64770000D03*
X81280000Y-62230000D03*
X81280000Y-59690000D03*
X81280000Y-57150000D03*
X81280000Y-54610000D03*
X81280000Y-52070000D03*
X81280000Y-49530000D03*
X81280000Y-46990000D03*
%TD*%
D15*
%TO.C,SW1*%
X45720000Y-86360000D03*
D14*
X48260000Y-86360000D03*
X50800000Y-86360000D03*
X53340000Y-86360000D03*
%TD*%
D19*
%TO.C,R17*%
X45720000Y-78740000D03*
X53340000Y-78740000D03*
%TD*%
%TO.C,R16*%
X78740000Y-34290000D03*
X78740000Y-26670000D03*
%TD*%
%TO.C,R15*%
X86360000Y-34290000D03*
X86360000Y-26670000D03*
%TD*%
%TO.C,R14*%
X92710000Y-38100000D03*
X100330000Y-38100000D03*
%TD*%
%TO.C,R13*%
X92710000Y-48260000D03*
X100330000Y-48260000D03*
%TD*%
%TO.C,R12*%
X92710000Y-58420000D03*
X100330000Y-58420000D03*
%TD*%
%TO.C,R11*%
X92710000Y-68580000D03*
X100330000Y-68580000D03*
%TD*%
%TO.C,R10*%
X92710000Y-76200000D03*
X100330000Y-76200000D03*
%TD*%
%TO.C,R9*%
X71120000Y-34290000D03*
X71120000Y-26670000D03*
%TD*%
%TO.C,R8*%
X38100000Y-30480000D03*
X38100000Y-22860000D03*
%TD*%
%TO.C,R7*%
X92710000Y-25400000D03*
X100330000Y-25400000D03*
%TD*%
%TO.C,R6*%
X92710000Y-34290000D03*
X100330000Y-34290000D03*
%TD*%
%TO.C,R5*%
X92710000Y-44450000D03*
X100330000Y-44450000D03*
%TD*%
%TO.C,R4*%
X92710000Y-54610000D03*
X100330000Y-54610000D03*
%TD*%
%TO.C,R3*%
X92710000Y-64770000D03*
X100330000Y-64770000D03*
%TD*%
%TO.C,R2*%
X92710000Y-72390000D03*
X100330000Y-72390000D03*
%TD*%
D20*
%TO.C,Q1*%
X24130000Y-39370000D03*
D21*
X25400000Y-39370000D03*
X26670000Y-39370000D03*
%TD*%
D11*
%TO.C,K1*%
X27940000Y-88900000D03*
D10*
X30480000Y-88900000D03*
X33020000Y-88900000D03*
%TD*%
D12*
%TO.C,J22*%
X95250000Y-15240000D03*
X92710000Y-15240000D03*
D13*
X95250000Y-17780000D03*
D14*
X92710000Y-17780000D03*
%TD*%
D12*
%TO.C,J21*%
X102870000Y-15240000D03*
X100330000Y-15240000D03*
D13*
X102870000Y-17780000D03*
D14*
X100330000Y-17780000D03*
%TD*%
D12*
%TO.C,J20*%
X109220000Y-29210000D03*
X109220000Y-26670000D03*
X109220000Y-24130000D03*
D22*
X106680000Y-29210000D03*
D14*
X106680000Y-26670000D03*
X106680000Y-24130000D03*
%TD*%
D12*
%TO.C,J19*%
X109220000Y-39370000D03*
X109220000Y-36830000D03*
X109220000Y-34290000D03*
D22*
X106680000Y-39370000D03*
D14*
X106680000Y-36830000D03*
X106680000Y-34290000D03*
%TD*%
D12*
%TO.C,J18*%
X109220000Y-49530000D03*
X109220000Y-46990000D03*
X109220000Y-44450000D03*
D22*
X106680000Y-49530000D03*
D14*
X106680000Y-46990000D03*
X106680000Y-44450000D03*
%TD*%
D12*
%TO.C,J17*%
X109220000Y-59690000D03*
X109220000Y-57150000D03*
X109220000Y-54610000D03*
D22*
X106680000Y-59690000D03*
D14*
X106680000Y-57150000D03*
X106680000Y-54610000D03*
%TD*%
D12*
%TO.C,J16*%
X109220000Y-69850000D03*
X109220000Y-67310000D03*
X109220000Y-64770000D03*
D22*
X106680000Y-69850000D03*
D14*
X106680000Y-67310000D03*
X106680000Y-64770000D03*
%TD*%
D12*
%TO.C,J15*%
X109220000Y-80010000D03*
X109220000Y-77470000D03*
X109220000Y-74930000D03*
D22*
X106680000Y-80010000D03*
D14*
X106680000Y-77470000D03*
X106680000Y-74930000D03*
%TD*%
D12*
%TO.C,J14*%
X66040000Y-88900000D03*
X68580000Y-88900000D03*
D15*
X66040000Y-86360000D03*
D14*
X68580000Y-86360000D03*
%TD*%
D11*
%TO.C,J11*%
X82550000Y-78740000D03*
D10*
X85090000Y-78740000D03*
X87630000Y-78740000D03*
%TD*%
D11*
%TO.C,J10*%
X87630000Y-15748000D03*
D10*
X87630000Y-18288000D03*
X87630000Y-20828000D03*
%TD*%
D12*
%TO.C,J3*%
X58420000Y-88900000D03*
X60960000Y-88900000D03*
D15*
X58420000Y-86360000D03*
D14*
X60960000Y-86360000D03*
%TD*%
D23*
%TO.C,J1*%
X17780000Y-72390000D03*
D14*
X17780000Y-74930000D03*
X17780000Y-77470000D03*
X17780000Y-80010000D03*
X17780000Y-82550000D03*
%TD*%
D16*
%TO.C,BZ1*%
X33010000Y-29210000D03*
D17*
X25410000Y-29210000D03*
%TD*%
D12*
%TO.C,J8*%
X14986000Y-33782000D03*
X14986000Y-36322000D03*
X14986000Y-38862000D03*
D23*
X17526000Y-33782000D03*
D14*
X17526000Y-36322000D03*
X17526000Y-38862000D03*
%TD*%
D24*
%TO.C,*%
X108712000Y-16256000D03*
%TD*%
%TO.C,*%
X16256000Y-88646000D03*
%TD*%
D19*
%TO.C,R1*%
X38100000Y-33020000D03*
X38100000Y-40640000D03*
%TD*%
D25*
%TO.C,U1*%
X63286540Y-44450000D03*
D26*
X60746540Y-44450000D03*
X58206540Y-44450000D03*
X55666540Y-44450000D03*
X53126540Y-44450000D03*
X50586540Y-44450000D03*
X48046540Y-44450000D03*
X45506540Y-44450000D03*
X42966540Y-44450000D03*
X40426540Y-44450000D03*
X37886540Y-44450000D03*
X35346540Y-44450000D03*
X32806540Y-44450000D03*
X30266540Y-44450000D03*
X27726540Y-44450000D03*
X25186540Y-44450000D03*
X25186540Y-67310000D03*
X27726540Y-67310000D03*
X30266540Y-67310000D03*
X32806540Y-67310000D03*
X35346540Y-67310000D03*
X37886540Y-67310000D03*
X40426540Y-67310000D03*
X42966540Y-67310000D03*
X45506540Y-67310000D03*
X48046540Y-67310000D03*
X50586540Y-67310000D03*
X53126540Y-67310000D03*
X55666540Y-67310000D03*
X58206540Y-67310000D03*
X60746540Y-67310000D03*
X63286540Y-67310000D03*
%TD*%
D12*
%TO.C,J7*%
X14986000Y-23368000D03*
X14986000Y-25908000D03*
X14986000Y-28448000D03*
D23*
X17526000Y-23368000D03*
D14*
X17526000Y-25908000D03*
X17526000Y-28448000D03*
%TD*%
D24*
%TO.C,*%
X16256000Y-16256000D03*
%TD*%
%TO.C,*%
X108712000Y-88646000D03*
%TD*%
M02*
