M48
; DRILL file KiCad 10.0.3 date 2026-05-29T00:48:49
; FORMAT={3:3/ absolute / metric / suppress leading zeros}
; #@! TF.CreationDate,2026-05-29T00:48:49+02:00
; #@! TF.GenerationSoftware,Kicad,Pcbnew,10.0.3
; #@! TF.FileFunction,MixedPlating,1,2
FMAT,2
METRIC,TZ
; #@! TA.AperFunction,Plated,PTH,ViaDrill
T1C0.400
; #@! TA.AperFunction,Plated,PTH,ComponentDrill
T2C0.750
; #@! TA.AperFunction,Plated,PTH,ComponentDrill
T3C0.800
; #@! TA.AperFunction,Plated,PTH,ComponentDrill
T4C1.000
; #@! TA.AperFunction,Plated,PTH,ComponentDrill
T5C1.100
; #@! TA.AperFunction,NonPlated,NPTH,ComponentDrill
T6C1.100
; #@! TA.AperFunction,NonPlated,NPTH,ComponentDrill
T7C3.200
%
G90
G05
T1
X86360Y-81280
T2
X24130Y-39370
X25400Y-39370
X26670Y-39370
T3
X24130Y-72390
X24130Y-74930
X24130Y-77470
X24130Y-80010
X24130Y-82550
X24130Y-85090
X25187Y-44450
X25187Y-67310
X27727Y-44450
X27727Y-67310
X30267Y-44450
X30267Y-67310
X32807Y-44450
X32807Y-67310
X34290Y-72390
X34290Y-74930
X34290Y-77470
X34290Y-80010
X34290Y-82550
X34290Y-85090
X35347Y-44450
X35347Y-67310
X37887Y-44450
X37887Y-67310
X38100Y-22860
X38100Y-30480
X38100Y-33020
X38100Y-40640
X40427Y-44450
X40427Y-67310
X42967Y-44450
X42967Y-67310
X45507Y-44450
X45507Y-67310
X45720Y-78740
X48047Y-44450
X48047Y-67310
X50587Y-44450
X50587Y-67310
X53127Y-44450
X53127Y-67310
X53340Y-78740
X55667Y-44450
X55667Y-67310
X58207Y-44450
X58207Y-67310
X60747Y-44450
X60747Y-67310
X63287Y-44450
X63287Y-67310
X71120Y-26670
X71120Y-34290
X73660Y-46990
X73660Y-49530
X73660Y-52070
X73660Y-54610
X73660Y-57150
X73660Y-59690
X73660Y-62230
X73660Y-64770
X78740Y-26670
X78740Y-34290
X81280Y-46990
X81280Y-49530
X81280Y-52070
X81280Y-54610
X81280Y-57150
X81280Y-59690
X81280Y-62230
X81280Y-64770
X86360Y-26670
X86360Y-34290
X92710Y-25400
X92710Y-34290
X92710Y-38100
X92710Y-44450
X92710Y-48260
X92710Y-54610
X92710Y-58420
X92710Y-64770
X92710Y-68580
X92710Y-72390
X92710Y-76200
X100330Y-25400
X100330Y-34290
X100330Y-38100
X100330Y-44450
X100330Y-48260
X100330Y-54610
X100330Y-58420
X100330Y-64770
X100330Y-68580
X100330Y-72390
X100330Y-76200
T4
X25410Y-29210
X27940Y-88900
X30480Y-88900
X33010Y-29210
X33020Y-88900
X40640Y-83312
X40640Y-85852
X40640Y-88392
X45720Y-37970
X48260Y-37970
X50800Y-37970
X53340Y-37970
X55880Y-37970
X58420Y-37970
X60960Y-37970
X82550Y-78740
X85090Y-78740
X87630Y-15748
X87630Y-18288
X87630Y-20828
X87630Y-78740
T5
X17526Y-23368
X17526Y-25908
X17526Y-28448
X17526Y-33782
X17526Y-36322
X17526Y-38862
X17780Y-72390
X17780Y-74930
X17780Y-77470
X17780Y-80010
X17780Y-82550
X24130Y-17780
X26670Y-17780
X29210Y-17780
X34290Y-17780
X36830Y-17780
X45720Y-86360
X48260Y-86360
X50800Y-86360
X53340Y-86360
X58420Y-86360
X60960Y-86360
X66040Y-86360
X68580Y-86360
X69850Y-17780
X72390Y-17780
X73660Y-86360
X74930Y-17780
X76200Y-86360
X77470Y-17780
X78740Y-86360
X80010Y-17780
X81280Y-86360
X82550Y-17780
X86360Y-86360
X88900Y-86360
X91440Y-86360
X92710Y-17780
X93980Y-86360
X95250Y-17780
X99060Y-86360
X100330Y-17780
X101600Y-86360
X102870Y-17780
X106680Y-24130
X106680Y-26670
X106680Y-29210
X106680Y-34290
X106680Y-36830
X106680Y-39370
X106680Y-44450
X106680Y-46990
X106680Y-49530
X106680Y-54610
X106680Y-57150
X106680Y-59690
X106680Y-64770
X106680Y-67310
X106680Y-69850
X106680Y-74930
X106680Y-77470
X106680Y-80010
T6
X14986Y-23368
X14986Y-25908
X14986Y-28448
X14986Y-33782
X14986Y-36322
X14986Y-38862
X24130Y-15240
X26670Y-15240
X29210Y-15240
X34290Y-15240
X36830Y-15240
X58420Y-88900
X60960Y-88900
X66040Y-88900
X68580Y-88900
X92710Y-15240
X95250Y-15240
X99060Y-88900
X100330Y-15240
X101600Y-88900
X102870Y-15240
X109220Y-24130
X109220Y-26670
X109220Y-29210
X109220Y-34290
X109220Y-36830
X109220Y-39370
X109220Y-44450
X109220Y-46990
X109220Y-49530
X109220Y-54610
X109220Y-57150
X109220Y-59690
X109220Y-64770
X109220Y-67310
X109220Y-69850
X109220Y-74930
X109220Y-77470
X109220Y-80010
T7
X16256Y-16256
X16256Y-88646
X108712Y-16256
X108712Y-88646
M30
