%TF.GenerationSoftware,KiCad,Pcbnew,10.0.3*%
%TF.CreationDate,2026-05-29T00:48:48+02:00*%
%TF.ProjectId,brewingstation3,62726577-696e-4677-9374-6174696f6e33,rev?*%
%TF.SameCoordinates,Original*%
%TF.FileFunction,Copper,L1,Top*%
%TF.FilePolarity,Positive*%
%FSLAX46Y46*%
G04 Gerber Fmt 4.6, Leading zero omitted, Abs format (unit mm)*
G04 Created by KiCad (PCBNEW 10.0.3) date 2026-05-29 00:48:48*
%MOMM*%
%LPD*%
G01*
G04 APERTURE LIST*
G04 Aperture macros list*
%AMRoundRect*
0 Rectangle with rounded corners*
0 $1 Rounding radius*
0 $2 $3 $4 $5 $6 $7 $8 $9 X,Y pos of 4 corners*
0 Add a 4 corners polygon primitive as box body*
4,1,4,$2,$3,$4,$5,$6,$7,$8,$9,$2,$3,0*
0 Add four circle primitives for the rounded corners*
1,1,$1+$1,$2,$3*
1,1,$1+$1,$4,$5*
1,1,$1+$1,$6,$7*
1,1,$1+$1,$8,$9*
0 Add four rect primitives between the rounded corners*
20,1,$1+$1,$2,$3,$4,$5,0*
20,1,$1+$1,$4,$5,$6,$7,0*
20,1,$1+$1,$6,$7,$8,$9,0*
20,1,$1+$1,$8,$9,$2,$3,0*%
G04 Aperture macros list end*
%TA.AperFunction,ComponentPad*%
%ADD10C,1.700000*%
%TD*%
%TA.AperFunction,ComponentPad*%
%ADD11R,1.700000X1.700000*%
%TD*%
%TA.AperFunction,ComponentPad*%
%ADD12RoundRect,0.249999X0.850001X0.850001X-0.850001X0.850001X-0.850001X-0.850001X0.850001X-0.850001X0*%
%TD*%
%TA.AperFunction,ComponentPad*%
%ADD13C,2.200000*%
%TD*%
%TA.AperFunction,ComponentPad*%
%ADD14RoundRect,0.249999X-0.850001X-0.850001X0.850001X-0.850001X0.850001X0.850001X-0.850001X0.850001X0*%
%TD*%
%TA.AperFunction,ComponentPad*%
%ADD15R,2.000000X2.000000*%
%TD*%
%TA.AperFunction,ComponentPad*%
%ADD16C,2.000000*%
%TD*%
%TA.AperFunction,ComponentPad*%
%ADD17RoundRect,0.250000X-0.550000X-0.550000X0.550000X-0.550000X0.550000X0.550000X-0.550000X0.550000X0*%
%TD*%
%TA.AperFunction,ComponentPad*%
%ADD18C,1.600000*%
%TD*%
%TA.AperFunction,ComponentPad*%
%ADD19R,1.050000X1.500000*%
%TD*%
%TA.AperFunction,ComponentPad*%
%ADD20O,1.050000X1.500000*%
%TD*%
%TA.AperFunction,ComponentPad*%
%ADD21RoundRect,0.249999X0.850001X-0.850001X0.850001X0.850001X-0.850001X0.850001X-0.850001X-0.850001X0*%
%TD*%
%TA.AperFunction,ComponentPad*%
%ADD22RoundRect,0.249999X-0.850001X0.850001X-0.850001X-0.850001X0.850001X-0.850001X0.850001X0.850001X0*%
%TD*%
%TA.AperFunction,ComponentPad*%
%ADD23R,1.200000X2.000000*%
%TD*%
%TA.AperFunction,ComponentPad*%
%ADD24O,1.200000X2.000000*%
%TD*%
%TA.AperFunction,ViaPad*%
%ADD25C,0.800000*%
%TD*%
%TA.AperFunction,Conductor*%
%ADD26C,0.250000*%
%TD*%
G04 APERTURE END LIST*
D10*
%TO.P,J4,3,PEXT_3*%
%TO.N,/PEXT_5V*%
X40640000Y-83312000D03*
%TO.P,J4,2,5V_2*%
%TO.N,/PSOURCE_OUT*%
X40640000Y-85852000D03*
D11*
%TO.P,J4,1,IDS2_1*%
%TO.N,/IDS2_5V*%
X40640000Y-88392000D03*
%TD*%
D12*
%TO.P,J13,1,GND_1*%
%TO.N,GND*%
X36830000Y-17780000D03*
D13*
%TO.P,J13,2,IO23_2*%
%TO.N,/GPIO10*%
X34290000Y-17780000D03*
%TD*%
D12*
%TO.P,J9,1,GND_1*%
%TO.N,GND*%
X29210000Y-17780000D03*
D13*
%TO.P,J9,2,+3V3_2*%
%TO.N,+3V3*%
X26670000Y-17780000D03*
%TO.P,J9,3,DQ_3*%
%TO.N,Net-(J7-DQ)*%
X24130000Y-17780000D03*
%TD*%
%TO.P,DS1,4,SDA_4*%
%TO.N,/I2C_SDA*%
X93980000Y-86360000D03*
%TO.P,DS1,3,SCL_3*%
%TO.N,/I2C_SCL*%
X91440000Y-86360000D03*
%TO.P,DS1,2,VCC_2*%
%TO.N,+3V3*%
X88900000Y-86360000D03*
D14*
%TO.P,DS1,1,GND_1*%
%TO.N,GND*%
X86360000Y-86360000D03*
%TD*%
D13*
%TO.P,J12,2,IO23_2*%
%TO.N,/GPIO15*%
X101600000Y-86360000D03*
D14*
%TO.P,J12,1,GND_1*%
%TO.N,GND*%
X99060000Y-86360000D03*
%TD*%
D13*
%TO.P,DS2,4,SDA_4*%
%TO.N,/I2C_SDA*%
X81280000Y-86360000D03*
%TO.P,DS2,3,SCL_3*%
%TO.N,/I2C_SCL*%
X78740000Y-86360000D03*
%TO.P,DS2,2,VCC_2*%
%TO.N,+3V3*%
X76200000Y-86360000D03*
D14*
%TO.P,DS2,1,GND_1*%
%TO.N,GND*%
X73660000Y-86360000D03*
%TD*%
D12*
%TO.P,U6,1,VCC_1*%
%TO.N,+3V3*%
X82550000Y-17780000D03*
D13*
%TO.P,U6,2,GND_2*%
%TO.N,GND*%
X80010000Y-17780000D03*
%TO.P,U6,3,SCK_3*%
%TO.N,/SPI_CLK*%
X77470000Y-17780000D03*
%TO.P,U6,4,SDI_4*%
%TO.N,/SPI_MOSI*%
X74930000Y-17780000D03*
%TO.P,U6,5,SDO_5*%
%TO.N,/SPI_MISO*%
X72390000Y-17780000D03*
%TO.P,U6,6,CSB_6*%
%TO.N,/CS_BME*%
X69850000Y-17780000D03*
%TD*%
D11*
%TO.P,U5,1,VCC_1*%
%TO.N,+3V3*%
X45720000Y-37970000D03*
D10*
%TO.P,U5,2,GND_2*%
%TO.N,GND*%
X48260000Y-37970000D03*
%TO.P,U5,3,SDI_3*%
%TO.N,/SPI_MOSI*%
X50800000Y-37970000D03*
%TO.P,U5,4,SDO_4*%
%TO.N,/SPI_MISO*%
X53340000Y-37970000D03*
%TO.P,U5,5,SCK_5*%
%TO.N,/SPI_CLK*%
X55880000Y-37970000D03*
%TO.P,U5,6,CS_6*%
%TO.N,/CS_MAX*%
X58420000Y-37970000D03*
%TO.P,U5,7,DRDY_7*%
%TO.N,unconnected-(U5-DRDY-Pad7)*%
X60960000Y-37970000D03*
%TD*%
D15*
%TO.P,U3,1,LV1_1*%
%TO.N,unconnected-(U3-LV1-Pad1)*%
X34290000Y-85090000D03*
D16*
%TO.P,U3,2,LV2_2*%
%TO.N,/IDS2_WHT_LV*%
X34290000Y-82550000D03*
%TO.P,U3,3,LV_3*%
%TO.N,+3V3*%
X34290000Y-80010000D03*
%TO.P,U3,4,GND_4*%
%TO.N,GND*%
X34290000Y-77470000D03*
%TO.P,U3,5,LV3_5*%
%TO.N,/IDS2_YEL_LV*%
X34290000Y-74930000D03*
%TO.P,U3,6,LV4_6*%
%TO.N,/IDS2_BLU_LV*%
X34290000Y-72390000D03*
D15*
%TO.P,U3,7,HV1_7*%
%TO.N,unconnected-(U3-HV1-Pad7)*%
X24130000Y-85090000D03*
D16*
%TO.P,U3,8,HV2_8*%
%TO.N,/IDS2_WHT_HV*%
X24130000Y-82550000D03*
%TO.P,U3,9,HV_9*%
%TO.N,+5V*%
X24130000Y-80010000D03*
%TO.P,U3,10,GND_10*%
%TO.N,GND*%
X24130000Y-77470000D03*
%TO.P,U3,11,HV3_11*%
%TO.N,/IDS2_YEL_HV*%
X24130000Y-74930000D03*
%TO.P,U3,12,HV4_12*%
%TO.N,/IDS2_BLU_HV*%
X24130000Y-72390000D03*
%TD*%
D17*
%TO.P,U2,1,VSS_1*%
%TO.N,GND*%
X73660000Y-46990000D03*
D18*
%TO.P,U2,2,VDD_2*%
%TO.N,+3V3*%
X73660000Y-49530000D03*
%TO.P,U2,3,A0_3*%
%TO.N,GND*%
X73660000Y-52070000D03*
%TO.P,U2,4,A1_4*%
X73660000Y-54610000D03*
%TO.P,U2,5,A2_5*%
X73660000Y-57150000D03*
%TO.P,U2,6,~INT_6*%
%TO.N,unconnected-(U2-~INT-Pad6)*%
X73660000Y-59690000D03*
%TO.P,U2,7,SCL_7*%
%TO.N,/I2C_SCL*%
X73660000Y-62230000D03*
%TO.P,U2,8,SDA_8*%
%TO.N,/I2C_SDA*%
X73660000Y-64770000D03*
%TO.P,U2,9,P0_9*%
%TO.N,Net-(U2-P0)*%
X81280000Y-64770000D03*
%TO.P,U2,10,P1_10*%
%TO.N,Net-(U2-P1)*%
X81280000Y-62230000D03*
%TO.P,U2,11,P2_11*%
%TO.N,Net-(U2-P2)*%
X81280000Y-59690000D03*
%TO.P,U2,12,P3_12*%
%TO.N,Net-(U2-P3)*%
X81280000Y-57150000D03*
%TO.P,U2,13,P4_13*%
%TO.N,Net-(U2-P4)*%
X81280000Y-54610000D03*
%TO.P,U2,14,P5_14*%
%TO.N,Net-(U2-P5)*%
X81280000Y-52070000D03*
%TO.P,U2,15,P6_15*%
%TO.N,Net-(U2-P6)*%
X81280000Y-49530000D03*
%TO.P,U2,16,P7_16*%
%TO.N,Net-(U2-P7)*%
X81280000Y-46990000D03*
%TD*%
D14*
%TO.P,SW1,1,SW_A_1*%
%TO.N,/PSOURCE_OUT*%
X45720000Y-86360000D03*
D13*
%TO.P,SW1,2,SW_B_2*%
%TO.N,+5V*%
X48260000Y-86360000D03*
%TO.P,SW1,3,LED+_3*%
%TO.N,/PSW_LED*%
X50800000Y-86360000D03*
%TO.P,SW1,4,LED-_4*%
%TO.N,GND*%
X53340000Y-86360000D03*
%TD*%
D18*
%TO.P,R17,1,~_1*%
%TO.N,/PSOURCE_OUT*%
X45720000Y-78740000D03*
%TO.P,R17,2,~_2*%
%TO.N,/PSW_LED*%
X53340000Y-78740000D03*
%TD*%
%TO.P,R16,1,~_1*%
%TO.N,Net-(U2-P7)*%
X78740000Y-34290000D03*
%TO.P,R16,2,~_2*%
%TO.N,/LED_P7*%
X78740000Y-26670000D03*
%TD*%
%TO.P,R15,1,~_1*%
%TO.N,Net-(U2-P6)*%
X86360000Y-34290000D03*
%TO.P,R15,2,~_2*%
%TO.N,/LED_P6*%
X86360000Y-26670000D03*
%TD*%
%TO.P,R14,1,~_1*%
%TO.N,/ADC_BTN*%
X92710000Y-38100000D03*
%TO.P,R14,2,~_2*%
%TO.N,/BTN5*%
X100330000Y-38100000D03*
%TD*%
%TO.P,R13,1,~_1*%
%TO.N,/ADC_BTN*%
X92710000Y-48260000D03*
%TO.P,R13,2,~_2*%
%TO.N,/BTN4*%
X100330000Y-48260000D03*
%TD*%
%TO.P,R12,1,~_1*%
%TO.N,/ADC_BTN*%
X92710000Y-58420000D03*
%TO.P,R12,2,~_2*%
%TO.N,/BTN3*%
X100330000Y-58420000D03*
%TD*%
%TO.P,R11,1,~_1*%
%TO.N,/ADC_BTN*%
X92710000Y-68580000D03*
%TO.P,R11,2,~_2*%
%TO.N,/BTN2*%
X100330000Y-68580000D03*
%TD*%
%TO.P,R10,1,~_1*%
%TO.N,/ADC_BTN*%
X92710000Y-76200000D03*
%TO.P,R10,2,~_2*%
%TO.N,/BTN1*%
X100330000Y-76200000D03*
%TD*%
%TO.P,R9,1,~_1*%
%TO.N,/ADC_BTN*%
X71120000Y-34290000D03*
%TO.P,R9,2,~_2*%
%TO.N,+3V3*%
X71120000Y-26670000D03*
%TD*%
%TO.P,R8,1,~_1*%
%TO.N,Net-(U1-IO0)*%
X38100000Y-30480000D03*
%TO.P,R8,2,~_2*%
%TO.N,Net-(Q1-B)*%
X38100000Y-22860000D03*
%TD*%
%TO.P,R7,1,~_1*%
%TO.N,Net-(U2-P5)*%
X92710000Y-25400000D03*
%TO.P,R7,2,~_2*%
%TO.N,/LED_100*%
X100330000Y-25400000D03*
%TD*%
%TO.P,R6,1,~_1*%
%TO.N,Net-(U2-P4)*%
X92710000Y-34290000D03*
%TO.P,R6,2,~_2*%
%TO.N,/LED_80*%
X100330000Y-34290000D03*
%TD*%
%TO.P,R5,1,~_1*%
%TO.N,Net-(U2-P3)*%
X92710000Y-44450000D03*
%TO.P,R5,2,~_2*%
%TO.N,/LED_60*%
X100330000Y-44450000D03*
%TD*%
%TO.P,R4,1,~_1*%
%TO.N,Net-(U2-P2)*%
X92710000Y-54610000D03*
%TO.P,R4,2,~_2*%
%TO.N,/LED_40*%
X100330000Y-54610000D03*
%TD*%
%TO.P,R3,1,~_1*%
%TO.N,Net-(U2-P1)*%
X92710000Y-64770000D03*
%TO.P,R3,2,~_2*%
%TO.N,/LED_20*%
X100330000Y-64770000D03*
%TD*%
%TO.P,R2,1,~_1*%
%TO.N,Net-(U2-P0)*%
X92710000Y-72390000D03*
%TO.P,R2,2,~_2*%
%TO.N,/LED_0*%
X100330000Y-72390000D03*
%TD*%
D19*
%TO.P,Q1,1,B_1*%
%TO.N,Net-(Q1-B)*%
X24130000Y-39370000D03*
D20*
%TO.P,Q1,2,C_2*%
%TO.N,Net-(BZ1--)*%
X25400000Y-39370000D03*
%TO.P,Q1,3,E_3*%
%TO.N,GND*%
X26670000Y-39370000D03*
%TD*%
D11*
%TO.P,K1,1,VCC_1*%
%TO.N,+5V*%
X27940000Y-88900000D03*
D10*
%TO.P,K1,2,GND_2*%
%TO.N,GND*%
X30480000Y-88900000D03*
%TO.P,K1,3,IN_3*%
%TO.N,/RELAY_CTRL*%
X33020000Y-88900000D03*
%TD*%
D12*
%TO.P,J22,1,GND_1*%
%TO.N,GND*%
X95250000Y-17780000D03*
D13*
%TO.P,J22,2,LED_2*%
%TO.N,/LED_P7*%
X92710000Y-17780000D03*
%TD*%
D12*
%TO.P,J21,1,GND_1*%
%TO.N,GND*%
X102870000Y-17780000D03*
D13*
%TO.P,J21,2,LED_2*%
%TO.N,/LED_P6*%
X100330000Y-17780000D03*
%TD*%
D21*
%TO.P,J20,1,GND_1*%
%TO.N,GND*%
X106680000Y-29210000D03*
D13*
%TO.P,J20,2,BTN_2*%
%TO.N,/ADC_BTN*%
X106680000Y-26670000D03*
%TO.P,J20,3,LED_3*%
%TO.N,/LED_100*%
X106680000Y-24130000D03*
%TD*%
D21*
%TO.P,J19,1,GND_1*%
%TO.N,GND*%
X106680000Y-39370000D03*
D13*
%TO.P,J19,2,BTN_2*%
%TO.N,/BTN5*%
X106680000Y-36830000D03*
%TO.P,J19,3,LED_3*%
%TO.N,/LED_80*%
X106680000Y-34290000D03*
%TD*%
D21*
%TO.P,J18,1,GND_1*%
%TO.N,GND*%
X106680000Y-49530000D03*
D13*
%TO.P,J18,2,BTN_2*%
%TO.N,/BTN4*%
X106680000Y-46990000D03*
%TO.P,J18,3,LED_3*%
%TO.N,/LED_60*%
X106680000Y-44450000D03*
%TD*%
D21*
%TO.P,J17,1,GND_1*%
%TO.N,GND*%
X106680000Y-59690000D03*
D13*
%TO.P,J17,2,BTN_2*%
%TO.N,/BTN3*%
X106680000Y-57150000D03*
%TO.P,J17,3,LED_3*%
%TO.N,/LED_40*%
X106680000Y-54610000D03*
%TD*%
D21*
%TO.P,J16,1,GND_1*%
%TO.N,GND*%
X106680000Y-69850000D03*
D13*
%TO.P,J16,2,BTN_2*%
%TO.N,/BTN2*%
X106680000Y-67310000D03*
%TO.P,J16,3,LED_3*%
%TO.N,/LED_20*%
X106680000Y-64770000D03*
%TD*%
D21*
%TO.P,J15,1,GND_1*%
%TO.N,GND*%
X106680000Y-80010000D03*
D13*
%TO.P,J15,2,BTN_2*%
%TO.N,/BTN1*%
X106680000Y-77470000D03*
%TO.P,J15,3,LED_3*%
%TO.N,/LED_0*%
X106680000Y-74930000D03*
%TD*%
D14*
%TO.P,J14,1,GND_1*%
%TO.N,GND*%
X66040000Y-86360000D03*
D13*
%TO.P,J14,2,IO23_2*%
%TO.N,/GPIO3_ADC*%
X68580000Y-86360000D03*
%TD*%
D11*
%TO.P,J11,1,GND_1*%
%TO.N,GND*%
X82550000Y-78740000D03*
D10*
%TO.P,J11,2,TX_IO16_2*%
%TO.N,/UART_TX*%
X85090000Y-78740000D03*
%TO.P,J11,3,RX_IO17_3*%
%TO.N,/UART_RX*%
X87630000Y-78740000D03*
%TD*%
D11*
%TO.P,J10,1,GND_1*%
%TO.N,GND*%
X87630000Y-15748000D03*
D10*
%TO.P,J10,2,+3V3_2*%
%TO.N,+3V3*%
X87630000Y-18288000D03*
%TO.P,J10,3,+5V_3*%
%TO.N,+5V*%
X87630000Y-20828000D03*
%TD*%
D14*
%TO.P,J3,1,VCC_1*%
%TO.N,/PEXT_5V*%
X58420000Y-86360000D03*
D13*
%TO.P,J3,2,GND_2*%
%TO.N,GND*%
X60960000Y-86360000D03*
%TD*%
D22*
%TO.P,J1,1,VCC_1*%
%TO.N,/IDS2_5V*%
X17780000Y-72390000D03*
D13*
%TO.P,J1,2,GND_2*%
%TO.N,GND*%
X17780000Y-74930000D03*
%TO.P,J1,3,WHITE_3*%
%TO.N,/IDS2_WHT_HV*%
X17780000Y-77470000D03*
%TO.P,J1,4,YELLOW_4*%
%TO.N,/IDS2_YEL_HV*%
X17780000Y-80010000D03*
%TO.P,J1,5,BLUE_5*%
%TO.N,/IDS2_BLU_HV*%
X17780000Y-82550000D03*
%TD*%
D15*
%TO.P,BZ1,1,+_1*%
%TO.N,+5V*%
X33010000Y-29210000D03*
D16*
%TO.P,BZ1,2,-_2*%
%TO.N,Net-(BZ1--)*%
X25410000Y-29210000D03*
%TD*%
D22*
%TO.P,J8,1,GND_1*%
%TO.N,GND*%
X17526000Y-33782000D03*
D13*
%TO.P,J8,2,+3V3_2*%
%TO.N,+3V3*%
X17526000Y-36322000D03*
%TO.P,J8,3,DQ_3*%
%TO.N,Net-(J7-DQ)*%
X17526000Y-38862000D03*
%TD*%
D18*
%TO.P,R1,1,~_1*%
%TO.N,+3V3*%
X38100000Y-33020000D03*
%TO.P,R1,2,~_2*%
%TO.N,Net-(J7-DQ)*%
X38100000Y-40640000D03*
%TD*%
D23*
%TO.P,U1,1,+3V3_1*%
%TO.N,+3V3*%
X63286540Y-44450000D03*
D24*
%TO.P,U1,2,EN_2*%
X60746540Y-44450000D03*
%TO.P,U1,3,IO4_3*%
%TO.N,/CS_MAX*%
X58206540Y-44450000D03*
%TO.P,U1,4,IO5_4*%
%TO.N,/SPI_CLK*%
X55666540Y-44450000D03*
%TO.P,U1,5,IO6_5*%
%TO.N,/SPI_MISO*%
X53126540Y-44450000D03*
%TO.P,U1,6,IO7_6*%
%TO.N,/SPI_MOSI*%
X50586540Y-44450000D03*
%TO.P,U1,7,IO0_7*%
%TO.N,Net-(U1-IO0)*%
X48046540Y-44450000D03*
%TO.P,U1,8,IO1_8*%
%TO.N,/ADC_BTN*%
X45506540Y-44450000D03*
%TO.P,U1,9,IO8_9*%
%TO.N,unconnected-(U1-IO8-Pad9)*%
X42966540Y-44450000D03*
%TO.P,U1,10,IO10_10*%
%TO.N,/GPIO10*%
X40426540Y-44450000D03*
%TO.P,U1,11,IO11_11*%
%TO.N,Net-(J7-DQ)*%
X37886540Y-44450000D03*
%TO.P,U1,12,IO2_12*%
%TO.N,/CS_BME*%
X35346540Y-44450000D03*
%TO.P,U1,13,IO3_13*%
%TO.N,/GPIO3_ADC*%
X32806540Y-44450000D03*
%TO.P,U1,14,+5V_14*%
%TO.N,+5V*%
X30266540Y-44450000D03*
%TO.P,U1,15,GND_15*%
%TO.N,GND*%
X27726540Y-44450000D03*
%TO.P,U1,16,NC_16*%
%TO.N,unconnected-(U1-NC-Pad16)*%
X25186540Y-44450000D03*
%TO.P,U1,17,NC_17*%
%TO.N,unconnected-(U1-NC-Pad17)*%
X25186540Y-67310000D03*
%TO.P,U1,18,GND_18*%
%TO.N,GND*%
X27726540Y-67310000D03*
%TO.P,U1,19,IO12_19*%
%TO.N,unconnected-(U1-IO12-Pad19)*%
X30266540Y-67310000D03*
%TO.P,U1,20,IO13_20*%
%TO.N,unconnected-(U1-IO13-Pad20)*%
X32806540Y-67310000D03*
%TO.P,U1,21,GND_21*%
%TO.N,GND*%
X35346540Y-67310000D03*
%TO.P,U1,22,IO9_22*%
%TO.N,unconnected-(U1-IO9-Pad22)*%
X37886540Y-67310000D03*
%TO.P,U1,23,IO18_23*%
%TO.N,/IDS2_WHT_LV*%
X40426540Y-67310000D03*
%TO.P,U1,24,IO19_24*%
%TO.N,/IDS2_YEL_LV*%
X42966540Y-67310000D03*
%TO.P,U1,25,IO20_25*%
%TO.N,/IDS2_BLU_LV*%
X45506540Y-67310000D03*
%TO.P,U1,26,IO21_26*%
%TO.N,/RELAY_CTRL*%
X48046540Y-67310000D03*
%TO.P,U1,27,IO22_27*%
%TO.N,/I2C_SCL*%
X50586540Y-67310000D03*
%TO.P,U1,28,IO23_28*%
%TO.N,/I2C_SDA*%
X53126540Y-67310000D03*
%TO.P,U1,29,IO15_29*%
%TO.N,/GPIO15*%
X55666540Y-67310000D03*
%TO.P,U1,30,IO17~RX_30*%
%TO.N,/UART_RX*%
X58206540Y-67310000D03*
%TO.P,U1,31,IO16~TX_31*%
%TO.N,/UART_TX*%
X60746540Y-67310000D03*
%TO.P,U1,32,GND_32*%
%TO.N,GND*%
X63286540Y-67310000D03*
%TD*%
D22*
%TO.P,J7,1,GND_1*%
%TO.N,GND*%
X17526000Y-23368000D03*
D13*
%TO.P,J7,2,+3V3_2*%
%TO.N,+3V3*%
X17526000Y-25908000D03*
%TO.P,J7,3,DQ_3*%
%TO.N,Net-(J7-DQ)*%
X17526000Y-28448000D03*
%TD*%
D25*
%TO.N,+3V3*%
X86360000Y-81280000D03*
%TD*%
%TO.N,+3V3*%
D26*
X83058000Y-18288000D02*
X82550000Y-17780000D01*
X87630000Y-18288000D02*
X83058000Y-18288000D01*
%TO.N,GND*%
X93825000Y-16355000D02*
X95250000Y-17780000D01*
X87630000Y-15748000D02*
X88237000Y-16355000D01*
X88237000Y-16355000D02*
X93825000Y-16355000D01*
X82042000Y-15748000D02*
X80010000Y-17780000D01*
X87630000Y-15748000D02*
X82042000Y-15748000D01*
%TO.N,/PEXT_5V*%
X53805991Y-77615000D02*
X58420000Y-82229009D01*
X45134919Y-77615000D02*
X53805991Y-77615000D01*
X40640000Y-82109919D02*
X45134919Y-77615000D01*
X40640000Y-83312000D02*
X40640000Y-82109919D01*
X58420000Y-82229009D02*
X58420000Y-86360000D01*
%TO.N,/PSOURCE_OUT*%
X45212000Y-85852000D02*
X45720000Y-86360000D01*
X40640000Y-85852000D02*
X45212000Y-85852000D01*
%TO.N,/RELAY_CTRL*%
X33020000Y-88900000D02*
X48046540Y-73873460D01*
%TO.N,+3V3*%
X38565991Y-21735000D02*
X30625000Y-21735000D01*
X39370000Y-22539009D02*
X38565991Y-21735000D01*
X39370000Y-31750000D02*
X39370000Y-22539009D01*
X38100000Y-33020000D02*
X39370000Y-31750000D01*
X30625000Y-21735000D02*
X26670000Y-17780000D01*
%TO.N,+5V*%
X33010000Y-41706540D02*
X30266540Y-44450000D01*
X33010000Y-29210000D02*
X33010000Y-41706540D01*
%TO.N,Net-(Q1-B)*%
X24085000Y-28661167D02*
X29886167Y-22860000D01*
X24085000Y-39325000D02*
X24085000Y-28661167D01*
X29886167Y-22860000D02*
X38100000Y-22860000D01*
X24130000Y-39370000D02*
X24085000Y-39325000D01*
%TO.N,Net-(BZ1--)*%
X25410000Y-29210000D02*
X25410000Y-39360000D01*
X25410000Y-39360000D02*
X25400000Y-39370000D01*
%TO.N,GND*%
X25186540Y-46990000D02*
X27726540Y-44450000D01*
X23638745Y-46990000D02*
X25186540Y-46990000D01*
X16101000Y-35207000D02*
X16101000Y-39452255D01*
X16101000Y-39452255D02*
X23638745Y-46990000D01*
X17526000Y-33782000D02*
X16101000Y-35207000D01*
%TO.N,+3V3*%
X18542000Y-25908000D02*
X26670000Y-17780000D01*
X17526000Y-25908000D02*
X18542000Y-25908000D01*
X18951000Y-27333000D02*
X17526000Y-25908000D01*
X18951000Y-34897000D02*
X18951000Y-27333000D01*
X17526000Y-36322000D02*
X18951000Y-34897000D01*
%TO.N,GND*%
X27726540Y-40426540D02*
X26670000Y-39370000D01*
X27726540Y-44450000D02*
X27726540Y-40426540D01*
%TO.N,Net-(U1-IO0)*%
X34421540Y-34158460D02*
X38100000Y-30480000D01*
X34421540Y-45233148D02*
X34421540Y-34158460D01*
X48046540Y-44450000D02*
X46721540Y-45775000D01*
X46721540Y-45775000D02*
X34963392Y-45775000D01*
X34963392Y-45775000D02*
X34421540Y-45233148D01*
%TO.N,/IDS2_BLU_LV*%
X40043392Y-65985000D02*
X44181540Y-65985000D01*
X44181540Y-65985000D02*
X45506540Y-67310000D01*
X39501540Y-68592673D02*
X39501540Y-66526852D01*
X35704213Y-72390000D02*
X39501540Y-68592673D01*
X34290000Y-72390000D02*
X35704213Y-72390000D01*
X39501540Y-66526852D02*
X40043392Y-65985000D01*
%TO.N,GND*%
X32965000Y-69691540D02*
X35346540Y-67310000D01*
X32965000Y-76145000D02*
X32965000Y-69691540D01*
X34290000Y-77470000D02*
X32965000Y-76145000D01*
%TO.N,+5V*%
X29210000Y-74930000D02*
X29210000Y-45506540D01*
X29210000Y-45506540D02*
X30266540Y-44450000D01*
X24130000Y-80010000D02*
X29210000Y-74930000D01*
%TO.N,GND*%
X27726540Y-73873460D02*
X27726540Y-67310000D01*
X24130000Y-77470000D02*
X27726540Y-73873460D01*
%TO.N,/IDS2_WHT_LV*%
X40426540Y-76413460D02*
X40426540Y-67310000D01*
X34290000Y-82550000D02*
X40426540Y-76413460D01*
%TO.N,+3V3*%
X88900000Y-83820000D02*
X88900000Y-86360000D01*
X86360000Y-81280000D02*
X88900000Y-83820000D01*
X62361540Y-72521540D02*
X62361540Y-55748460D01*
X76200000Y-86360000D02*
X62361540Y-72521540D01*
X62361540Y-55748460D02*
X68580000Y-49530000D01*
%TO.N,/IDS2_BLU_HV*%
X22255000Y-70515000D02*
X24130000Y-72390000D01*
X15905000Y-71108504D02*
X16498504Y-70515000D01*
X16498504Y-70515000D02*
X22255000Y-70515000D01*
X15905000Y-80675000D02*
X15905000Y-71108504D01*
X17780000Y-82550000D02*
X15905000Y-80675000D01*
%TO.N,/IDS2_YEL_HV*%
X20165000Y-70965000D02*
X24130000Y-74930000D01*
X16684900Y-70965000D02*
X20165000Y-70965000D01*
X16355000Y-71294900D02*
X16684900Y-70965000D01*
X16355000Y-78585000D02*
X16355000Y-71294900D01*
X17780000Y-80010000D02*
X16355000Y-78585000D01*
%TO.N,GND*%
X20320000Y-77470000D02*
X24130000Y-77470000D01*
X17780000Y-74930000D02*
X20320000Y-77470000D01*
X22805000Y-78795000D02*
X24130000Y-77470000D01*
X26465000Y-90075000D02*
X22805000Y-86415000D01*
X29305000Y-90075000D02*
X26465000Y-90075000D01*
X30480000Y-88900000D02*
X29305000Y-90075000D01*
X22805000Y-86415000D02*
X22805000Y-78795000D01*
%TO.N,+5V*%
X27940000Y-83820000D02*
X24130000Y-80010000D01*
X27940000Y-88900000D02*
X27940000Y-83820000D01*
%TO.N,/RELAY_CTRL*%
X48046540Y-73873460D02*
X48046540Y-67310000D01*
%TO.N,+5V*%
X30966701Y-87725000D02*
X29115000Y-87725000D01*
X31655000Y-89386701D02*
X31655000Y-88413299D01*
X32438299Y-90170000D02*
X31655000Y-89386701D01*
X29115000Y-87725000D02*
X27940000Y-88900000D01*
X44450000Y-90170000D02*
X32438299Y-90170000D01*
X31655000Y-88413299D02*
X30966701Y-87725000D01*
X48260000Y-86360000D02*
X44450000Y-90170000D01*
%TO.N,GND*%
X30480000Y-91440000D02*
X30480000Y-88900000D01*
X48260000Y-91440000D02*
X30480000Y-91440000D01*
%TO.N,/PSOURCE_OUT*%
X45720000Y-78740000D02*
X45720000Y-86360000D01*
%TO.N,/PSW_LED*%
X53340000Y-83820000D02*
X50800000Y-86360000D01*
X53340000Y-78740000D02*
X53340000Y-83820000D01*
%TO.N,/GPIO3_ADC*%
X49530000Y-61173460D02*
X32806540Y-44450000D01*
X49530000Y-67961608D02*
X49530000Y-61173460D01*
X50203392Y-68635000D02*
X49530000Y-67961608D01*
X50855000Y-68635000D02*
X50203392Y-68635000D01*
X68580000Y-86360000D02*
X50855000Y-68635000D01*
%TO.N,GND*%
X80010000Y-66352613D02*
X82550000Y-68892613D01*
X80010000Y-63500000D02*
X80010000Y-66352613D01*
X82550000Y-68892613D02*
X82550000Y-78740000D01*
X73660000Y-57150000D02*
X80010000Y-63500000D01*
%TO.N,/I2C_SDA*%
X81280000Y-68259009D02*
X81280000Y-86360000D01*
X74125991Y-61105000D02*
X81280000Y-68259009D01*
X72535000Y-61764009D02*
X73194009Y-61105000D01*
X72535000Y-63645000D02*
X72535000Y-61764009D01*
X73194009Y-61105000D02*
X74125991Y-61105000D01*
X73660000Y-64770000D02*
X72535000Y-63645000D01*
%TO.N,/I2C_SCL*%
X78740000Y-67310000D02*
X78740000Y-86360000D01*
X73660000Y-62230000D02*
X78740000Y-67310000D01*
%TO.N,GND*%
X73446540Y-57150000D02*
X63286540Y-67310000D01*
X73660000Y-57150000D02*
X73446540Y-57150000D01*
X73660000Y-54610000D02*
X73660000Y-57150000D01*
X73660000Y-52070000D02*
X73660000Y-54610000D01*
X74785000Y-50945000D02*
X73660000Y-52070000D01*
X74785000Y-48115000D02*
X74785000Y-50945000D01*
X73660000Y-46990000D02*
X74785000Y-48115000D01*
%TO.N,+3V3*%
X49530000Y-41780000D02*
X45720000Y-37970000D01*
X49530000Y-45101608D02*
X49530000Y-41780000D01*
X50203392Y-45775000D02*
X49530000Y-45101608D01*
X59421540Y-45775000D02*
X50203392Y-45775000D01*
X60746540Y-44450000D02*
X59421540Y-45775000D01*
X68580000Y-49530000D02*
X73660000Y-49530000D01*
X63500000Y-44450000D02*
X68580000Y-49530000D01*
X63286540Y-44450000D02*
X63500000Y-44450000D01*
X63286540Y-44450000D02*
X60746540Y-44450000D01*
X63286540Y-34503460D02*
X63286540Y-44450000D01*
X71120000Y-26670000D02*
X63286540Y-34503460D01*
%TO.N,/SPI_MOSI*%
X50800000Y-44236540D02*
X50586540Y-44450000D01*
X50800000Y-37970000D02*
X50800000Y-44236540D01*
%TO.N,/SPI_MISO*%
X53340000Y-37970000D02*
X53340000Y-44236540D01*
X53340000Y-44236540D02*
X53126540Y-44450000D01*
%TO.N,/CS_MAX*%
X58420000Y-44236540D02*
X58206540Y-44450000D01*
X58420000Y-37970000D02*
X58420000Y-44236540D01*
%TO.N,/SPI_CLK*%
X55880000Y-44236540D02*
X55666540Y-44450000D01*
X55880000Y-37970000D02*
X55880000Y-44236540D01*
%TO.N,/CS_BME*%
X36178392Y-44450000D02*
X35346540Y-44450000D01*
X62848392Y-17780000D02*
X36178392Y-44450000D01*
X69850000Y-17780000D02*
X62848392Y-17780000D01*
%TO.N,/SPI_MOSI*%
X51975000Y-36795000D02*
X50800000Y-37970000D01*
X55915000Y-36795000D02*
X51975000Y-36795000D01*
X74930000Y-17780000D02*
X55915000Y-36795000D01*
%TO.N,/SPI_CLK*%
X56758299Y-37970000D02*
X55880000Y-37970000D01*
X76948299Y-17780000D02*
X56758299Y-37970000D01*
X77470000Y-17780000D02*
X76948299Y-17780000D01*
%TO.N,GND*%
X39370000Y-15240000D02*
X36830000Y-17780000D01*
X77470000Y-15240000D02*
X39370000Y-15240000D01*
X80010000Y-17780000D02*
X77470000Y-15240000D01*
X16101000Y-32357000D02*
X17526000Y-33782000D01*
X17526000Y-23368000D02*
X16101000Y-24793000D01*
X16101000Y-24793000D02*
X16101000Y-32357000D01*
X17526000Y-20574000D02*
X17526000Y-23368000D01*
X21745000Y-16355000D02*
X17526000Y-20574000D01*
X27785000Y-16355000D02*
X21745000Y-16355000D01*
X29210000Y-17780000D02*
X27785000Y-16355000D01*
X30825000Y-16165000D02*
X29210000Y-17780000D01*
X36830000Y-17780000D02*
X35215000Y-16165000D01*
X35215000Y-16165000D02*
X30825000Y-16165000D01*
%TO.N,/ADC_BTN*%
X93980000Y-39370000D02*
X92710000Y-38100000D01*
X93980000Y-46990000D02*
X93980000Y-39370000D01*
X92710000Y-48260000D02*
X93980000Y-46990000D01*
X93835000Y-49385000D02*
X92710000Y-48260000D01*
X92710000Y-58420000D02*
X93835000Y-57295000D01*
X93835000Y-57295000D02*
X93835000Y-49385000D01*
X93835000Y-67455000D02*
X93835000Y-59545000D01*
X93835000Y-59545000D02*
X92710000Y-58420000D01*
X92710000Y-68580000D02*
X93835000Y-67455000D01*
X93835000Y-69705000D02*
X92710000Y-68580000D01*
X93835000Y-75075000D02*
X93835000Y-69705000D01*
X92710000Y-76200000D02*
X93835000Y-75075000D01*
%TO.N,GND*%
X82550000Y-81280000D02*
X82550000Y-78740000D01*
X86360000Y-85090000D02*
X82550000Y-81280000D01*
X86360000Y-86360000D02*
X86360000Y-85090000D01*
X66040000Y-86360000D02*
X60960000Y-86360000D01*
X67465000Y-87785000D02*
X66040000Y-86360000D01*
X72235000Y-87785000D02*
X67465000Y-87785000D01*
X73660000Y-86360000D02*
X72235000Y-87785000D01*
X84935000Y-87785000D02*
X75085000Y-87785000D01*
X86360000Y-86360000D02*
X84935000Y-87785000D01*
X75085000Y-87785000D02*
X73660000Y-86360000D01*
X87785000Y-87785000D02*
X86360000Y-86360000D01*
X97635000Y-87785000D02*
X87785000Y-87785000D01*
X99060000Y-86360000D02*
X97635000Y-87785000D01*
X100485000Y-87785000D02*
X99060000Y-86360000D01*
X102190255Y-87785000D02*
X100485000Y-87785000D01*
X106680000Y-80010000D02*
X106680000Y-83295255D01*
X106680000Y-83295255D02*
X102190255Y-87785000D01*
%TO.N,Net-(U2-P0)*%
X88900000Y-72390000D02*
X81280000Y-64770000D01*
X92710000Y-72390000D02*
X88900000Y-72390000D01*
%TO.N,Net-(U2-P1)*%
X88900000Y-62230000D02*
X81280000Y-62230000D01*
X92710000Y-64770000D02*
X91440000Y-64770000D01*
X91440000Y-64770000D02*
X88900000Y-62230000D01*
%TO.N,Net-(U2-P2)*%
X86360000Y-59690000D02*
X81280000Y-59690000D01*
X91440000Y-54610000D02*
X86360000Y-59690000D01*
X92710000Y-54610000D02*
X91440000Y-54610000D01*
%TO.N,Net-(U2-P3)*%
X92710000Y-45720000D02*
X81280000Y-57150000D01*
X92710000Y-44450000D02*
X92710000Y-45720000D01*
%TO.N,Net-(U2-P4)*%
X92710000Y-34290000D02*
X91440000Y-35560000D01*
X91440000Y-35560000D02*
X91440000Y-44450000D01*
X91440000Y-44450000D02*
X81280000Y-54610000D01*
%TO.N,Net-(U2-P5)*%
X86825991Y-46524009D02*
X81280000Y-52070000D01*
X86825991Y-35415000D02*
X86825991Y-46524009D01*
X92710000Y-29530991D02*
X86825991Y-35415000D01*
X92710000Y-25400000D02*
X92710000Y-29530991D01*
%TO.N,Net-(U2-P6)*%
X86360000Y-44450000D02*
X81280000Y-49530000D01*
X86360000Y-34290000D02*
X86360000Y-44450000D01*
%TO.N,Net-(U2-P7)*%
X78740000Y-44450000D02*
X81280000Y-46990000D01*
X78740000Y-34290000D02*
X78740000Y-44450000D01*
%TO.N,+3V3*%
X82550000Y-17780000D02*
X73660000Y-26670000D01*
X73660000Y-26670000D02*
X71120000Y-26670000D01*
%TO.N,/LED_P7*%
X83820000Y-26670000D02*
X78740000Y-26670000D01*
X92710000Y-17780000D02*
X83820000Y-26670000D01*
%TO.N,/LED_P6*%
X98739009Y-17780000D02*
X89849009Y-26670000D01*
X89849009Y-26670000D02*
X86360000Y-26670000D01*
X100330000Y-17780000D02*
X98739009Y-17780000D01*
%TO.N,GND*%
X101445000Y-16355000D02*
X96675000Y-16355000D01*
X96675000Y-16355000D02*
X95250000Y-17780000D01*
X102870000Y-17780000D02*
X101445000Y-16355000D01*
%TO.N,/ADC_BTN*%
X106680000Y-26670000D02*
X104140000Y-26670000D01*
X104140000Y-26670000D02*
X92710000Y-38100000D01*
%TO.N,/LED_100*%
X101600000Y-24130000D02*
X100330000Y-25400000D01*
X106680000Y-24130000D02*
X101600000Y-24130000D01*
%TO.N,GND*%
X108295000Y-23205000D02*
X102870000Y-17780000D01*
X108295000Y-27595000D02*
X108295000Y-23205000D01*
X106680000Y-29210000D02*
X108295000Y-27595000D01*
%TO.N,/LED_80*%
X100330000Y-34290000D02*
X106680000Y-34290000D01*
%TO.N,/BTN5*%
X105410000Y-38100000D02*
X106680000Y-36830000D01*
X100330000Y-38100000D02*
X105410000Y-38100000D01*
%TO.N,/LED_60*%
X100330000Y-44450000D02*
X106680000Y-44450000D01*
%TO.N,/BTN4*%
X105410000Y-48260000D02*
X106680000Y-46990000D01*
X100330000Y-48260000D02*
X105410000Y-48260000D01*
%TO.N,GND*%
X108295000Y-78395000D02*
X106680000Y-80010000D01*
X108295000Y-71465000D02*
X108295000Y-78395000D01*
X106680000Y-69850000D02*
X108295000Y-71465000D01*
X108105000Y-30635000D02*
X106680000Y-29210000D01*
X108105000Y-37945000D02*
X108105000Y-30635000D01*
X106680000Y-39370000D02*
X108105000Y-37945000D01*
X108105000Y-40795000D02*
X106680000Y-39370000D01*
X106680000Y-49530000D02*
X108105000Y-48105000D01*
X108105000Y-48105000D02*
X108105000Y-40795000D01*
X108295000Y-58075000D02*
X108295000Y-51145000D01*
X108295000Y-51145000D02*
X106680000Y-49530000D01*
X106680000Y-59690000D02*
X108295000Y-58075000D01*
X108295000Y-61305000D02*
X106680000Y-59690000D01*
X108295000Y-68235000D02*
X108295000Y-61305000D01*
X106680000Y-69850000D02*
X108295000Y-68235000D01*
%TO.N,/LED_40*%
X100330000Y-54610000D02*
X106680000Y-54610000D01*
%TO.N,/BTN3*%
X105410000Y-58420000D02*
X106680000Y-57150000D01*
X100330000Y-58420000D02*
X105410000Y-58420000D01*
%TO.N,/LED_20*%
X100330000Y-64770000D02*
X106680000Y-64770000D01*
%TO.N,/BTN1*%
X105410000Y-76200000D02*
X106680000Y-77470000D01*
X100330000Y-76200000D02*
X105410000Y-76200000D01*
%TO.N,/BTN2*%
X100330000Y-68580000D02*
X105410000Y-68580000D01*
X105410000Y-68580000D02*
X106680000Y-67310000D01*
%TO.N,/LED_0*%
X100330000Y-72390000D02*
X102870000Y-74930000D01*
X102870000Y-74930000D02*
X106680000Y-74930000D01*
%TO.N,GND*%
X60960000Y-86360000D02*
X59345000Y-87975000D01*
X59345000Y-87975000D02*
X54955000Y-87975000D01*
X54955000Y-87975000D02*
X53340000Y-86360000D01*
X53340000Y-86360000D02*
X48260000Y-91440000D01*
%TD*%
M02*
